<svg width="32" height="39" viewBox="0 0 32 39" fill="none" xmlns="http://www.w3.org/2000/svg">
<path d="M2.68 17.24C2.28 17.24 1.8 17.08 1.48 16.76C0.84 16.12 0.84 15.08 1.48 14.36L14.36 1.48C15 0.84 16.12 0.84 16.76 1.48L29.64 14.36C30.28 15 30.28 16.04 29.64 16.76C29 17.4 27.96 17.4 27.24 16.76L15.56 5.08L3.88 16.76C3.56 17.08 3.08 17.24 2.68 17.24Z" fill="#6E91E6" stroke="#6E91E6" stroke-width="2"/>
<path d="M28.7902 21C29.1902 21 29.6702 21.16 29.9902 21.48C30.6302 22.12 30.6302 23.16 29.9902 23.88L17.1102 36.76C16.4702 37.4 15.3502 37.4 14.7102 36.76L1.83022 23.88C1.19022 23.24 1.19022 22.2 1.83022 21.48C2.47022 20.84 3.51022 20.84 4.23022 21.48L15.9102 33.16L27.5902 21.48C27.9102 21.16 28.3902 21 28.7902 21Z" fill="#6E91E6" stroke="#6E91E6" stroke-width="2"/>
</svg>
