<?xml version="1.0" encoding="UTF-8"?><svg id="Layer_2" xmlns="http://www.w3.org/2000/svg" xmlns:xlink="http://www.w3.org/1999/xlink" viewBox="0 0 279.25 53.73"><defs><style>.cls-1{fill:url(#linear-gradient);}.cls-1,.cls-2,.cls-3,.cls-4{stroke-width:0px;}.cls-2{fill:#000;}.cls-3{fill:url(#linear-gradient-2);}.cls-4{fill:#fff;}</style><linearGradient id="linear-gradient" x1="277.25" y1="26.86" x2="2" y2="26.86" gradientUnits="userSpaceOnUse"><stop offset="0" stop-color="#122dbd"/><stop offset=".47" stop-color="#2174fa"/><stop offset=".92" stop-color="#34d18a"/></linearGradient><linearGradient id="linear-gradient-2" x1="118.95" y1="31.01" x2="162.22" y2="21.93" xlink:href="#linear-gradient"/></defs><g id="Layer_2-2"><path class="cls-4" d="M8.6,0h262.05c4.75,0,8.6,3.85,8.6,8.6v36.53c0,4.75-3.85,8.6-8.6,8.6H8.6c-4.75,0-8.6-3.85-8.6-8.6V8.6C0,3.85,3.85,0,8.6,0Z"/><rect class="cls-4" x="3" y="3" width="273.25" height="47.73" rx="5.6" ry="5.6"/><path class="cls-1" d="M270.65,3c3.09,0,5.6,2.51,5.6,5.6v36.53c0,3.09-2.51,5.6-5.6,5.6H8.6c-3.09,0-5.6-2.51-5.6-5.6V8.6c0-3.09,2.51-5.6,5.6-5.6h262.05M270.65,2H8.6c-3.64,0-6.6,2.96-6.6,6.6v36.53c0,3.64,2.96,6.6,6.6,6.6h262.05c3.64,0,6.6-2.96,6.6-6.6V8.6c0-3.64-2.96-6.6-6.6-6.6h0Z"/><path class="cls-2" d="M168.44,22.98c1.32,0,2.43.53,3.31,1.54l1.96-1.81c-1.24-1.51-3.14-2.33-5.42-2.33-4.1,0-7.15,2.84-7.15,6.81s3.05,6.81,7.13,6.81c2.3,0,4.2-.83,5.44-2.35l-1.96-1.81c-.88,1.03-1.99,1.56-3.31,1.56-2.46,0-4.21-1.73-4.21-4.21s1.75-4.21,4.21-4.21Z"/><polygon class="cls-2" points="174.61 23.09 178.82 23.09 178.82 33.78 181.87 33.78 181.87 23.09 186.08 23.09 186.08 20.61 174.61 20.61 174.61 23.09"/><path class="cls-2" d="M199.61,25.39c0-2.95-2.2-4.78-5.72-4.78h-5.7v13.17h3.05v-3.67h2.8l2.54,3.67h3.27l-2.95-4.23c1.71-.73,2.71-2.18,2.71-4.16ZM193.72,27.68h-2.48v-4.59h2.48c1.86,0,2.8.85,2.8,2.3s-.94,2.3-2.8,2.3Z"/><polygon class="cls-2" points="216.09 31.37 212.46 20.61 210.73 20.61 207.03 31.31 203.47 20.61 201.53 20.61 205.94 33.78 207.95 33.78 211.54 23.26 215.14 33.78 217.11 33.78 221.51 20.61 219.73 20.61 216.09 31.37"/><path class="cls-2" d="M230.09,20.46c-4.05,0-7.02,2.88-7.02,6.74s2.97,6.74,7.02,6.74,6.98-2.86,6.98-6.74-2.97-6.74-6.98-6.74ZM230.09,32.25c-2.95,0-5.14-2.14-5.14-5.06s2.18-5.06,5.14-5.06,5.1,2.14,5.1,5.06-2.18,5.06-5.1,5.06Z"/><polygon class="cls-2" points="256.83 20.61 253.2 31.37 249.57 20.61 247.84 20.61 244.13 31.31 240.57 20.61 238.64 20.61 243.04 33.78 245.05 33.78 248.65 23.26 252.24 33.78 254.21 33.78 258.62 20.61 256.83 20.61"/><path class="cls-3" d="M144.56,14.97l-13.77,7.88v15.18l-5.36-2.68v-16.52l13.38-7.14,5.74,3.28ZM152.22,22.33v-3.75l-2.99-1.15-13.95,7.79v14.77l3.28,2.05,13.58-7.59v-5.97l-11.33,5.48v-5.66l11.39-5.97Z"/><path class="cls-2" d="M262.82,25.25c-1.31,0-2.38-1.07-2.38-2.38s1.07-2.38,2.38-2.38,2.38,1.07,2.38,2.38-1.07,2.38-2.38,2.38ZM262.82,20.74c-1.18,0-2.14.96-2.14,2.14s.96,2.14,2.14,2.14,2.14-.96,2.14-2.14-.96-2.14-2.14-2.14Z"/><path class="cls-2" d="M262.03,24.13v-2.51h.97c.13,0,.24.02.34.07.1.04.18.11.24.18.06.08.1.16.13.25.03.09.04.19.04.29,0,.1-.01.19-.04.27-.02.09-.06.16-.11.24s-.11.13-.2.18c-.08.05-.18.08-.29.09l.64.94h-.46l-.63-.92h-.27v.92h-.39ZM262.42,22.85h.56c.13,0,.23-.04.3-.13.07-.09.1-.19.1-.31,0-.08-.01-.14-.04-.21-.02-.06-.07-.12-.13-.16s-.13-.07-.22-.07h-.58v.88Z"/><path class="cls-2" d="M32.11,28.32c.44.57.65,1.28.65,2.12,0,1.17-.45,2.06-1.34,2.7-.9.63-2.2.95-3.92.95h-6.68v-13.44h6.3c1.59,0,2.81.31,3.67.93.86.62,1.29,1.48,1.29,2.56,0,.67-.15,1.25-.46,1.77-.31.51-.73.91-1.27,1.19.74.24,1.33.65,1.77,1.22ZM23.32,22.61v3.71h3.53c.87,0,1.54-.16,2.01-.47.47-.31.7-.77.7-1.37s-.23-1.08-.7-1.39c-.47-.31-1.14-.47-2.01-.47h-3.53ZM30.25,30.2c0-1.29-.97-1.94-2.9-1.94h-4.03v3.88h4.03c1.93,0,2.9-.65,2.9-1.94Z"/><path class="cls-2" d="M45.13,23.84v10.25h-2.29v-1.31c-.38.46-.86.82-1.44,1.07-.58.25-1.2.38-1.86.38-1.37,0-2.45-.38-3.24-1.14s-1.18-1.89-1.18-3.39v-5.86h2.4v5.53c0,.92.21,1.61.62,2.06.42.45,1.01.68,1.78.68.86,0,1.54-.27,2.04-.8.5-.53.76-1.3.76-2.29v-5.18h2.4Z"/><path class="cls-2" d="M48.39,21.74c-.29-.28-.44-.62-.44-1.03s.15-.75.44-1.03c.29-.28.66-.41,1.09-.41s.8.13,1.09.39c.29.26.44.59.44.99,0,.42-.14.78-.43,1.07s-.66.43-1.1.43-.8-.14-1.09-.41ZM48.28,23.84h2.4v10.25h-2.4v-10.25Z"/><path class="cls-2" d="M53.83,19.85h2.4v14.25h-2.4v-14.25Z"/><path class="cls-2" d="M66.04,33.54c-.28.23-.62.4-1.03.52s-.83.17-1.28.17c-1.13,0-2-.29-2.61-.88-.62-.59-.92-1.45-.92-2.57v-4.93h-1.69v-1.92h1.69v-2.34h2.4v2.34h2.75v1.92h-2.75v4.88c0,.5.12.88.36,1.14.24.26.6.39,1.06.39.54,0,.99-.14,1.34-.42l.67,1.71Z"/><path class="cls-2" d="M89.31,23.84l-3.78,10.25h-2.3l-2.65-7.07-2.69,7.07h-2.3l-3.76-10.25h2.27l2.71,7.57,2.82-7.57h2.02l2.76,7.6,2.78-7.6h2.13Z"/><path class="cls-2" d="M91.08,21.74c-.29-.28-.44-.62-.44-1.03s.15-.75.44-1.03c.29-.28.66-.41,1.09-.41s.8.13,1.09.39c.29.26.44.59.44.99,0,.42-.14.78-.43,1.07s-.66.43-1.1.43-.8-.14-1.09-.41ZM90.97,23.84h2.4v10.25h-2.4v-10.25Z"/><path class="cls-2" d="M102.68,33.54c-.28.23-.62.4-1.03.52s-.83.17-1.28.17c-1.13,0-2-.29-2.61-.88-.62-.59-.92-1.45-.92-2.57v-4.93h-1.69v-1.92h1.69v-2.34h2.4v2.34h2.75v1.92h-2.75v4.88c0,.5.12.88.36,1.14.24.26.6.39,1.06.39.54,0,.99-.14,1.34-.42l.67,1.71Z"/><path class="cls-2" d="M113.59,24.86c.78.76,1.17,1.88,1.17,3.36v5.88h-2.4v-5.57c0-.9-.21-1.57-.63-2.03-.42-.45-1.02-.68-1.81-.68-.88,0-1.58.27-2.09.8-.51.53-.77,1.3-.77,2.29v5.18h-2.4v-14.25h2.4v5.18c.4-.42.89-.75,1.47-.97.58-.22,1.23-.34,1.95-.34,1.29,0,2.33.38,3.11,1.13Z"/></g></svg>